<svg xmlns="http://www.w3.org/2000/svg">
    <symbol id="letters" fill="currentColor" viewBox="0 0 14 4">
        <path
            d="M1.91021 0.60725C1.92821 0.66875 1.94771 0.7385 1.96871 0.8165C1.99121 0.893 2.01446 0.9725 2.03846 1.055C2.06396 1.1375 2.08946 1.22 2.11496 1.3025C2.14046 1.385 2.16521 1.4615 2.18921 1.532C2.20871 1.4555 2.22821 1.37225 2.24771 1.28225C2.26871 1.19225 2.28821 1.09925 2.30621 1.00325C2.32421 0.90725 2.34146 0.812 2.35796 0.7175C2.37596 0.6215 2.39246 0.52925 2.40746 0.44075H2.77196C2.71946 0.70175 2.65871 0.9665 2.58971 1.235C2.52221 1.5035 2.44871 1.7585 2.36921 2H2.04746C1.99496 1.856 1.94396 1.70525 1.89446 1.54775C1.84496 1.38875 1.79621 1.22975 1.74821 1.07075C1.70021 1.22975 1.65221 1.38875 1.60421 1.54775C1.55621 1.70525 1.50596 1.856 1.45346 2H1.13171C1.05221 1.7585 0.97796 1.5035 0.90896 1.235C0.84146 0.9665 0.78146 0.70175 0.72896 0.44075H1.10921C1.12421 0.52925 1.14071 0.6215 1.15871 0.7175C1.17671 0.812 1.19546 0.90725 1.21496 1.00325C1.23446 1.09925 1.25396 1.19225 1.27346 1.28225C1.29446 1.37225 1.31546 1.4555 1.33646 1.532C1.36346 1.4585 1.38971 1.3805 1.41521 1.298C1.44071 1.2155 1.46546 1.133 1.48946 1.0505C1.51346 0.968 1.53521 0.8885 1.55471 0.812C1.57571 0.7355 1.59446 0.66725 1.61096 0.60725H1.91021ZM2.975 2V0.308L3.31025 0.254V0.821C3.33275 0.8135 3.36125 0.80675 3.39575 0.80075C3.43175 0.79325 3.46625 0.7895 3.49925 0.7895C3.59525 0.7895 3.67475 0.803 3.73775 0.83C3.80225 0.8555 3.85325 0.89225 3.89075 0.94025C3.92975 0.98825 3.95675 1.04525 3.97175 1.11125C3.98825 1.17725 3.9965 1.25075 3.9965 1.33175V2H3.66125V1.37225C3.66125 1.26425 3.647 1.18775 3.6185 1.14275C3.5915 1.09775 3.5405 1.07525 3.4655 1.07525C3.4355 1.07525 3.407 1.07825 3.38 1.08425C3.3545 1.08875 3.33125 1.094 3.31025 1.1V2H2.975ZM4.63521 2H4.29996V0.8165H4.63521V2ZM4.66671 0.4745C4.66671 0.536 4.64646 0.58475 4.60596 0.62075C4.56696 0.65525 4.52046 0.6725 4.46646 0.6725C4.41246 0.6725 4.36521 0.65525 4.32471 0.62075C4.28571 0.58475 4.26621 0.536 4.26621 0.4745C4.26621 0.413 4.28571 0.365 4.32471 0.3305C4.36521 0.2945 4.41246 0.2765 4.46646 0.2765C4.52046 0.2765 4.56696 0.2945 4.60596 0.3305C4.64646 0.365 4.66671 0.413 4.66671 0.4745ZM4.9391 0.52175L5.27435 0.46775V0.8165H5.6771V1.0955H5.27435V1.51175C5.27435 1.58225 5.28635 1.6385 5.31035 1.6805C5.33585 1.7225 5.3861 1.7435 5.4611 1.7435C5.4971 1.7435 5.53385 1.7405 5.57135 1.7345C5.61035 1.727 5.6456 1.71725 5.6771 1.70525L5.72435 1.96625C5.68385 1.98275 5.63885 1.997 5.58935 2.009C5.53985 2.021 5.4791 2.027 5.4071 2.027C5.3156 2.027 5.23985 2.015 5.17985 1.991C5.11985 1.9655 5.07185 1.931 5.03585 1.8875C4.99985 1.8425 4.97435 1.7885 4.95935 1.7255C4.94585 1.6625 4.9391 1.59275 4.9391 1.51625V0.52175ZM5.84991 1.41725C5.84991 1.31225 5.86566 1.22075 5.89716 1.14275C5.93016 1.06325 5.97291 0.99725 6.02541 0.94475C6.07791 0.89225 6.13791 0.8525 6.20541 0.8255C6.27441 0.7985 6.34491 0.785 6.41691 0.785C6.58491 0.785 6.71766 0.83675 6.81516 0.94025C6.91266 1.04225 6.96141 1.193 6.96141 1.3925C6.96141 1.412 6.96066 1.43375 6.95916 1.45775C6.95766 1.48025 6.95616 1.5005 6.95466 1.5185H6.19416C6.20166 1.5875 6.23391 1.64225 6.29091 1.68275C6.34791 1.72325 6.42441 1.7435 6.52041 1.7435C6.58191 1.7435 6.64191 1.73825 6.70041 1.72775C6.76041 1.71575 6.80916 1.7015 6.84666 1.685L6.89166 1.95725C6.87366 1.96625 6.84966 1.97525 6.81966 1.98425C6.78966 1.99325 6.75591 2.00075 6.71841 2.00675C6.68241 2.01425 6.64341 2.02025 6.60141 2.02475C6.55941 2.02925 6.51741 2.0315 6.47541 2.0315C6.36891 2.0315 6.27591 2.01575 6.19641 1.98425C6.11841 1.95275 6.05316 1.91 6.00066 1.856C5.94966 1.8005 5.91141 1.73525 5.88591 1.66025C5.86191 1.58525 5.84991 1.50425 5.84991 1.41725ZM6.63741 1.289C6.63591 1.2605 6.63066 1.23275 6.62166 1.20575C6.61416 1.17875 6.60141 1.15475 6.58341 1.13375C6.56691 1.11275 6.54516 1.0955 6.51816 1.082C6.49266 1.0685 6.46041 1.06175 6.42141 1.06175C6.38391 1.06175 6.35166 1.0685 6.32466 1.082C6.29766 1.094 6.27516 1.1105 6.25716 1.1315C6.23916 1.1525 6.22491 1.17725 6.21441 1.20575C6.20541 1.23275 6.19866 1.2605 6.19416 1.289H6.63741ZM7.97837 1.39925C7.97837 1.18325 7.89887 1.07525 7.73987 1.07525C7.70537 1.07525 7.67087 1.07975 7.63637 1.08875C7.60337 1.09775 7.57637 1.109 7.55537 1.1225V1.73225C7.57187 1.73525 7.59287 1.73825 7.61837 1.74125C7.64387 1.74275 7.67162 1.7435 7.70162 1.7435C7.79312 1.7435 7.86212 1.712 7.90862 1.649C7.95512 1.586 7.97837 1.50275 7.97837 1.39925ZM8.32037 1.40825C8.32037 1.50275 8.30612 1.58825 8.27762 1.66475C8.25062 1.74125 8.21087 1.8065 8.15837 1.8605C8.10587 1.9145 8.04137 1.9565 7.96487 1.9865C7.88837 2.015 7.80137 2.02925 7.70387 2.02925C7.66337 2.02925 7.62062 2.027 7.57562 2.0225C7.53212 2.0195 7.48862 2.015 7.44512 2.009C7.40312 2.003 7.36262 1.99625 7.32362 1.98875C7.28462 1.97975 7.25012 1.97075 7.22012 1.96175V0.308L7.55537 0.254V0.8435C7.59287 0.827 7.63187 0.81425 7.67237 0.80525C7.71287 0.79625 7.75637 0.79175 7.80287 0.79175C7.88687 0.79175 7.96112 0.80675 8.02562 0.83675C8.09012 0.86525 8.14412 0.9065 8.18762 0.9605C8.23112 1.0145 8.26412 1.07975 8.28662 1.15625C8.30912 1.23125 8.32037 1.31525 8.32037 1.40825ZM9.68503 1.406C9.68503 1.499 9.67153 1.5845 9.64453 1.6625C9.61753 1.739 9.57853 1.805 9.52753 1.8605C9.47653 1.9145 9.41503 1.9565 9.34303 1.9865C9.27253 2.0165 9.19303 2.0315 9.10453 2.0315C9.01753 2.0315 8.93803 2.0165 8.86603 1.9865C8.79553 1.9565 8.73478 1.9145 8.68378 1.8605C8.63278 1.805 8.59303 1.739 8.56453 1.6625C8.53603 1.5845 8.52178 1.499 8.52178 1.406C8.52178 1.313 8.53603 1.22825 8.56453 1.15175C8.59453 1.07525 8.63503 1.01 8.68603 0.956C8.73853 0.902 8.80003 0.86 8.87053 0.83C8.94253 0.8 9.02053 0.785 9.10453 0.785C9.19003 0.785 9.26803 0.8 9.33853 0.83C9.41053 0.86 9.47203 0.902 9.52303 0.956C9.57403 1.01 9.61378 1.07525 9.64228 1.15175C9.67078 1.22825 9.68503 1.313 9.68503 1.406ZM9.34303 1.406C9.34303 1.3025 9.32203 1.2215 9.28003 1.163C9.23953 1.103 9.18103 1.073 9.10453 1.073C9.02803 1.073 8.96878 1.103 8.92678 1.163C8.88478 1.2215 8.86378 1.3025 8.86378 1.406C8.86378 1.5095 8.88478 1.592 8.92678 1.6535C8.96878 1.7135 9.02803 1.7435 9.10453 1.7435C9.18103 1.7435 9.23953 1.7135 9.28003 1.6535C9.32203 1.592 9.34303 1.5095 9.34303 1.406ZM10.397 1.766C10.43 1.766 10.4615 1.76525 10.4915 1.76375C10.5215 1.76225 10.5455 1.76 10.5635 1.757V1.50275C10.55 1.49975 10.5297 1.49675 10.5027 1.49375C10.4757 1.49075 10.451 1.48925 10.4285 1.48925C10.397 1.48925 10.367 1.4915 10.3385 1.496C10.3115 1.499 10.2875 1.50575 10.2665 1.51625C10.2455 1.52675 10.229 1.541 10.217 1.559C10.205 1.577 10.199 1.5995 10.199 1.6265C10.199 1.679 10.2162 1.71575 10.2507 1.73675C10.2867 1.75625 10.3355 1.766 10.397 1.766ZM10.37 0.785C10.469 0.785 10.5515 0.79625 10.6175 0.81875C10.6835 0.84125 10.736 0.8735 10.775 0.9155C10.8155 0.9575 10.844 1.0085 10.8605 1.0685C10.877 1.1285 10.8852 1.19525 10.8852 1.26875V1.96625C10.8372 1.97675 10.7705 1.98875 10.685 2.00225C10.5995 2.01725 10.496 2.02475 10.3745 2.02475C10.298 2.02475 10.2282 2.018 10.1652 2.0045C10.1037 1.991 10.0505 1.96925 10.0055 1.93925C9.96048 1.90775 9.92598 1.86725 9.90198 1.81775C9.87798 1.76825 9.86598 1.7075 9.86598 1.6355C9.86598 1.5665 9.87948 1.508 9.90648 1.46C9.93498 1.412 9.97248 1.37375 10.019 1.34525C10.0655 1.31675 10.1187 1.2965 10.1787 1.2845C10.2387 1.271 10.301 1.26425 10.3655 1.26425C10.409 1.26425 10.4472 1.2665 10.4802 1.271C10.5147 1.274 10.5425 1.2785 10.5635 1.2845V1.253C10.5635 1.196 10.5462 1.15025 10.5117 1.11575C10.4772 1.08125 10.4172 1.064 10.3317 1.064C10.2747 1.064 10.2185 1.0685 10.163 1.0775C10.1075 1.085 10.0595 1.09625 10.019 1.11125L9.97623 0.84125C9.99573 0.83525 10.0197 0.82925 10.0482 0.82325C10.0782 0.81575 10.1105 0.80975 10.145 0.80525C10.1795 0.79925 10.2155 0.79475 10.253 0.79175C10.292 0.78725 10.331 0.785 10.37 0.785ZM11.9016 1.1135C11.8716 1.106 11.8364 1.0985 11.7959 1.091C11.7554 1.082 11.7119 1.0775 11.6654 1.0775C11.6444 1.0775 11.6189 1.07975 11.5889 1.08425C11.5604 1.08725 11.5386 1.091 11.5236 1.0955V2H11.1884V0.8795C11.2484 0.8585 11.3189 0.839 11.3999 0.821C11.4824 0.8015 11.5739 0.79175 11.6744 0.79175C11.6924 0.79175 11.7141 0.79325 11.7396 0.79625C11.7651 0.79775 11.7906 0.80075 11.8161 0.80525C11.8416 0.80825 11.8671 0.81275 11.8926 0.81875C11.9181 0.82325 11.9399 0.82925 11.9579 0.83675L11.9016 1.1135ZM12.4014 1.39925C12.4014 1.50275 12.4246 1.586 12.4711 1.649C12.5176 1.712 12.5866 1.7435 12.6781 1.7435C12.7081 1.7435 12.7359 1.74275 12.7614 1.74125C12.7869 1.73825 12.8079 1.73525 12.8244 1.73225V1.1225C12.8034 1.109 12.7756 1.09775 12.7411 1.08875C12.7081 1.07975 12.6744 1.07525 12.6399 1.07525C12.4809 1.07525 12.4014 1.18325 12.4014 1.39925ZM13.1596 1.96175C13.1296 1.97075 13.0951 1.97975 13.0561 1.98875C13.0171 1.99625 12.9759 2.003 12.9324 2.009C12.8904 2.015 12.8469 2.0195 12.8019 2.0225C12.7584 2.027 12.7164 2.02925 12.6759 2.02925C12.5784 2.02925 12.4914 2.015 12.4149 1.9865C12.3384 1.958 12.2739 1.9175 12.2214 1.865C12.1689 1.811 12.1284 1.7465 12.0999 1.6715C12.0729 1.595 12.0594 1.5095 12.0594 1.415C12.0594 1.319 12.0714 1.23275 12.0954 1.15625C12.1194 1.07825 12.1539 1.01225 12.1989 0.95825C12.2439 0.90425 12.2986 0.863 12.3631 0.8345C12.4291 0.806 12.5041 0.79175 12.5881 0.79175C12.6346 0.79175 12.6759 0.79625 12.7119 0.80525C12.7494 0.81425 12.7869 0.827 12.8244 0.8435V0.308L13.1596 0.254V1.96175Z"
        />
    </symbol>

    <symbol id="underline" stroke="currentColor" viewBox="0 0 14 4">
        <path fill="none"
            d="M1 3C1 3 6 2 13 2"
            stroke-width="0.5"
            stroke-linecap="round"
        />
    </symbol>
</svg>